<svg xmlns="http://www.w3.org/2000/svg" width="200" height="44" viewBox="0 0 200 44">
  <rect width="200" height="44" rx="6" fill="#232F3E"/>
  <g transform="translate(14,10) scale(1)" fill="#FF9900">
    <path d="M6.763 10.036c0 .296.032.535.088.71.064.176.144.368.256.576.04.064.056.128.056.184 0 .08-.048.16-.152.24l-.503.335a.383.383 0 01-.208.072c-.08 0-.16-.04-.24-.112a2.47 2.47 0 01-.272-.352 6.391 6.391 0 01-.24-.44c-.6.712-1.36 1.064-2.272 1.064-.648 0-1.168-.184-1.544-.552-.376-.368-.568-.856-.568-1.464 0-.648.228-1.176.692-1.576.464-.4 1.08-.6 1.864-.6.256 0 .52.024.8.064.28.04.568.104.872.176v-.56c0-.576-.12-.976-.368-1.208-.248-.232-.672-.344-1.28-.344-.272 0-.56.032-.856.104-.296.072-.584.16-.856.272a2.28 2.28 0 01-.28.104.488.488 0 01-.128.024c-.112 0-.168-.08-.168-.248v-.392c0-.128.016-.224.056-.28.04-.056.112-.112.224-.168.272-.144.6-.264.984-.36a4.726 4.726 0 011.216-.152c.928 0 1.608.212 2.04.636.424.424.64 1.068.64 1.928v2.544h.008zm-3.136 1.16c.248 0 .504-.048.776-.136.272-.088.512-.248.712-.472.12-.136.208-.288.264-.464.056-.176.088-.392.088-.648v-.312a6.174 6.174 0 00-.696-.128 5.604 5.604 0 00-.712-.048c-.504 0-.872.096-1.12.296-.248.2-.368.48-.368.848 0 .336.088.592.272.76.176.176.432.264.768.264h.016zm6.2 1.544c-.144 0-.24-.024-.304-.08-.064-.048-.12-.16-.168-.312l-1.88-6.184a1.498 1.498 0 01-.072-.32c0-.128.064-.2.192-.2h.6c.152 0 .256.024.312.08.064.048.112.16.16.312l1.344 5.296 1.248-5.296c.04-.16.088-.264.152-.312.064-.048.176-.08.32-.08h.488c.152 0 .256.024.32.08.064.048.112.16.152.312l1.264 5.36 1.384-5.36c.048-.16.104-.264.168-.312.064-.048.168-.08.312-.08h.568c.128 0 .2.064.2.2 0 .04-.008.08-.016.128a1.245 1.245 0 01-.056.2l-1.928 6.184c-.048.16-.104.264-.168.312-.064.048-.176.08-.304.08h-.528c-.152 0-.248-.024-.312-.08-.064-.056-.112-.16-.152-.32l-1.24-5.152-1.232 5.144c-.04.16-.088.272-.152.32-.064.056-.168.08-.312.08h-.528zm10.136.24c-.392 0-.784-.048-1.16-.136-.376-.088-.672-.2-.872-.328-.12-.08-.208-.168-.232-.248a.633.633 0 01-.04-.216v-.408c0-.168.064-.248.184-.248a.45.45 0 01.144.024c.048.016.12.056.2.096.272.12.568.216.888.288.328.072.648.104.976.104.52 0 .92-.088 1.2-.272.28-.184.424-.448.424-.808a.82.82 0 00-.232-.6c-.152-.168-.44-.312-.856-.448l-1.232-.384c-.616-.2-1.072-.488-1.352-.872-.28-.376-.424-.792-.424-1.24 0-.36.08-.672.232-.944.152-.272.36-.504.616-.688.256-.192.544-.328.888-.424A3.744 3.744 0 0118.676 4c.192 0 .392.008.592.032.2.024.384.056.568.096.176.048.344.096.496.152.152.056.272.112.352.168.12.08.208.168.248.264.04.088.056.2.056.344v.376c0 .168-.064.256-.184.256a.83.83 0 01-.304-.088 3.652 3.652 0 00-1.536-.312c-.472 0-.848.072-1.112.224-.264.152-.4.384-.4.712 0 .232.088.432.264.592.176.16.504.32.976.472l1.2.384c.608.2 1.048.472 1.312.824.264.352.392.752.392 1.192 0 .368-.08.704-.232.992-.16.288-.376.536-.648.736a2.86 2.86 0 01-.968.472c-.376.12-.784.176-1.224.176z"/>
    <g>
      <path d="M21.384 16.752c-2.664 1.968-6.528 3.016-9.856 3.016-4.664 0-8.864-1.728-12.04-4.6-.248-.224-.024-.536.272-.36 3.432 2 7.672 3.2 12.056 3.2 2.952 0 6.2-.616 9.184-1.888.448-.2.824.296.384.632z"/>
      <path d="M22.488 15.496c-.344-.44-2.248-.208-3.112-.104-.256.032-.296-.2-.064-.36 1.52-1.072 4.024-.76 4.312-.4.288.36-.08 2.872-1.504 4.072-.216.184-.424.088-.328-.152.32-.792 1.032-2.608.696-3.056z"/>
    </g>
  </g>
  <text x="120" y="27" fill="white" font-family="system-ui,-apple-system,sans-serif" font-size="14" font-weight="600" text-anchor="middle">Deploy on AWS</text>
</svg>
