<svg xmlns="http://www.w3.org/2000/svg" width="220" height="44" viewBox="0 0 220 44">
  <rect width="220" height="44" rx="6" fill="#326CE5"/>
  <g transform="translate(14,10)" fill="white">
    <path d="M12 0C5.4 0 0 5.4 0 12s5.4 12 12 12 12-5.4 12-12S18.6 0 12 0zm0 2.1c5.5 0 9.9 4.5 9.9 9.9s-4.5 9.9-9.9 9.9S2.1 17.5 2.1 12 6.5 2.1 12 2.1zm0 2.4l-.6 3.9-.3.3H12h.9l-.3-.3-.6-3.9zm-4.5 2.1l1.8 3.6-.6.3-.3-.3-3-2.4c.6-.6 1.3-1 2.1-1.2zm9 0c.8.3 1.5.7 2.1 1.2l-3 2.4-.3.3-.6-.3 1.8-3.6zM7.2 9.9l3.3 2.1v.6l-.3.3-3.6 1.5c-.3-.8-.3-1.5-.3-2.4.1-.8.3-1.5.9-2.1zm9.6 0c.5.6.8 1.3.9 2.1 0 .8-.1 1.6-.3 2.4l-3.6-1.5-.3-.3v-.6l3.3-2.1zm-5.1 2.1h.6l.3.6-.3.6h-.6l-.3-.6.3-.6zm-2.1 1.8l3.6.9.3.3-.3.6-3.6 1.5c-.5-.9-.5-2.1 0-3.3zm5.4 0c.5 1.2.5 2.4 0 3.3l-3.6-1.5-.3-.6.3-.3 3.6-.9zm-7.2 2.7l3.9-.6.3.3v.9l-2.4 3c-.8-.9-1.5-2.1-1.8-3.6zm9 0c-.3 1.5-1 2.7-1.8 3.6l-2.4-3v-.9l.3-.3 3.9.6z"/>
  </g>
  <text x="132" y="27" fill="white" font-family="system-ui,-apple-system,sans-serif" font-size="14" font-weight="600" text-anchor="middle">Deploy on Kubernetes</text>
</svg>
